<?xml version="1.0" encoding="UTF-8"?>
<svg version="1.1" xmlns="http://www.w3.org/2000/svg" width="1200" height="316">
<path d="M0 0 C0.66338379 0.37495605 1.32676758 0.74991211 2.01025391 1.13623047 C12.30021339 7.04821724 21.30292425 13.94615944 30 22 C31.43279297 23.30904297 31.43279297 23.30904297 32.89453125 24.64453125 C60.58977515 51.0718956 77.04148146 89.93710968 78.203125 128.05078125 C78.83528727 170.93650761 64.34118145 210.02044387 34.75390625 241.20703125 C33.84511719 242.12871094 32.93632813 243.05039062 32 244 C31.10152344 244.91136719 30.20304687 245.82273437 29.27734375 246.76171875 C8.33713851 266.95303082 -18.71335099 279.33558969 -47 285 C-48.05574219 285.226875 -49.11148437 285.45375 -50.19921875 285.6875 C-87.85928737 292.49182858 -129.46368587 283.22293 -160.96972656 261.65136719 C-174.25465044 252.26216608 -186.11037197 242.0068091 -196 229 C-196.67675781 228.12730469 -197.35351562 227.25460938 -198.05078125 226.35546875 C-211.05433623 209.10997738 -219.68345316 189.85043842 -225 169 C-225.18079102 168.30696777 -225.36158203 167.61393555 -225.54785156 166.89990234 C-230.70510113 146.09147691 -230.32053716 119.71874003 -225 99 C-224.81727539 98.24251465 -224.63455078 97.4850293 -224.44628906 96.70458984 C-218.21996687 71.45680223 -205.80788317 48.85952981 -188 30 C-186.97172519 28.7770518 -185.95017386 27.54839767 -184.9375 26.3125 C-162.74386029 0.45990888 -125.20195178 -15.5524184 -91.86132812 -18.78466797 C-59.56477923 -21.21517617 -28.33157262 -16.0634062 0 0 Z M-133 53 C-140.43206722 61.02035967 -140.43206722 61.02035967 -145.65234375 69.62890625 C-148.69627782 75.54199882 -152.21579256 80.81994654 -156.125 86.1875 C-157.27931865 87.82842884 -158.43037868 89.47165494 -159.578125 91.1171875 C-161.28832215 93.55767979 -162.99865315 95.99807824 -164.70898438 98.43847656 C-166.4313023 100.89626548 -168.15324828 103.35431442 -169.875 105.8125 C-170.43807861 106.61623047 -171.00115723 107.41996094 -171.58129883 108.24804688 C-174.86426162 112.93759778 -178.13730633 117.63388622 -181.40234375 122.3359375 C-182.13662598 123.39321045 -182.8709082 124.4504834 -183.62744141 125.53979492 C-185.06425873 127.60961456 -186.50015796 129.68007186 -187.93505859 131.7512207 C-188.58168457 132.68281006 -189.22831055 133.61439941 -189.89453125 134.57421875 C-190.47050049 135.40526123 -191.04646973 136.23630371 -191.63989258 137.0925293 C-193 139 -193 139 -194 140 C-194 146.93 -194 153.86 -194 161 C-172.22 161 -150.44 161 -128 161 C-128 169.91 -128 178.82 -128 188 C-119.42 188 -110.84 188 -102 188 C-102 179.09 -102 170.18 -102 161 C-96.72 161 -91.44 161 -86 161 C-86 153.74 -86 146.48 -86 139 C-91.28 139 -96.56 139 -102 139 C-102 110.62 -102 82.24 -102 53 C-112.23 53 -122.46 53 -133 53 Z M-66 84 C-66.09106668 92.45939419 -66.16415118 100.91839499 -66.20724869 109.37815094 C-66.22795337 113.30811556 -66.25594898 117.23772194 -66.30175781 121.16748047 C-66.34583809 124.97361164 -66.36926504 128.77940254 -66.37950897 132.58576965 C-66.38679076 134.02396489 -66.40100267 135.46214561 -66.42292023 136.90019226 C-66.62383313 150.65373611 -65.29510492 165.15571092 -56 176 C-55.48695313 176.63292969 -54.97390625 177.26585937 -54.4453125 177.91796875 C-46.65164237 186.66254122 -35.39661171 189.40349906 -24.125 190.3125 C-13.04445692 189.9111926 -3.47569335 185.70644252 4.80859375 178.40625 C6.21547238 177.05285393 6.21547238 177.05285393 6 175 C6.66 175 7.32 175 8 175 C8 179.29 8 183.58 8 188 C16.25 188 24.5 188 33 188 C33 153.68 33 119.36 33 84 C24.75 84 16.5 84 8 84 C7.98018066 85.83103271 7.96036133 87.66206543 7.93994141 89.54858398 C7.87191584 95.62752932 7.7951224 101.70631557 7.71247292 107.785079 C7.66272406 111.46727741 7.61639397 115.14945008 7.578125 118.83178711 C7.54099936 122.39160625 7.4945694 125.95119796 7.44193649 129.51082039 C7.41463837 131.51628751 7.39674717 133.52187566 7.37905884 135.52745056 C7.09093877 153.51684665 7.09093877 153.51684665 1 161 C-5.13280478 166.81002558 -11.58390994 167.47732712 -19.7421875 167.30078125 C-25.58970986 166.76090209 -29.93236835 165.38236628 -33.84765625 160.87109375 C-37.96719295 154.95960728 -39.10923467 150.68014752 -39.20532227 143.48730469 C-39.21522186 142.84298492 -39.22512146 142.19866516 -39.23532104 141.53482056 C-39.26680429 139.41387555 -39.29164103 137.29290819 -39.31640625 135.171875 C-39.33698718 133.69784985 -39.35798395 132.22383045 -39.37937927 130.74981689 C-39.4344824 126.87667509 -39.48394334 123.00348105 -39.53222656 119.13024902 C-39.58252763 115.17532726 -39.63816871 111.22048102 -39.69335938 107.265625 C-39.80079707 99.51047893 -39.90178006 91.7552693 -40 84 C-48.58 84 -57.16 84 -66 84 Z " fill="#FFFFFF" transform="translate(1118,24)"/>
<path d="M0 0 C10.56 0 21.12 0 32 0 C33.46308594 3.4340625 34.92617188 6.868125 36.43359375 10.40625 C36.93664536 11.58697083 37.43969696 12.76769165 37.95799255 13.98419189 C40.49892459 19.94842817 43.03921366 25.91293692 45.57836914 31.87792969 C46.63555228 34.36133968 47.69276895 36.8447354 48.75 39.328125 C49.0141313 39.94858452 49.2782626 40.56904404 49.55039787 41.20830536 C52.71362481 48.6384025 55.88156377 56.06645659 59.05845642 63.49072266 C60.650833 67.2126813 62.240668 70.93572235 63.83010864 74.65893555 C64.56749151 76.38425742 65.30615666 78.10903182 66.04611206 79.83325195 C67.06390521 82.20518366 68.07738035 84.5789145 69.08984375 86.953125 C69.38870483 87.64637878 69.68756592 88.33963257 69.9954834 89.05389404 C72 93.77208511 72 93.77208511 72 96 C72.66 96 73.32 96 74 96 C74.17228622 95.45758163 74.34457245 94.91516327 74.52207947 94.35630798 C76.35885323 88.69633685 78.4836854 83.22591422 80.81640625 77.75390625 C81.18553131 76.88061676 81.55465637 76.00732727 81.93496704 75.10757446 C83.14071832 72.2577509 84.35148465 69.41009015 85.5625 66.5625 C86.40360522 64.57796711 87.24450402 62.59334672 88.08520508 60.60864258 C96.66155049 40.37933286 105.3222147 20.18595936 114 0 C124.23 0 134.46 0 145 0 C145 43.89 145 87.78 145 133 C136.09 133 127.18 133 118 133 C117.67 106.6 117.34 80.2 117 53 C114.710625 58.589375 112.42125 64.17875 110.0625 69.9375 C101.4350025 90.98326907 92.72601658 111.99492297 84 133 C76.74 133 69.48 133 62 133 C53.30867034 112.96714356 44.93764838 92.81340271 36.69935608 72.59034729 C34.16593004 66.37915252 31.58028702 60.19268886 29 54 C28.67 80.07 28.34 106.14 28 133 C18.76 133 9.52 133 0 133 C0 89.11 0 45.22 0 0 Z " fill="#FFFFFF" transform="translate(4,80)"/>
<path d="M0 0 C2.31132998 1.87391699 4.3218677 3.8218677 6.4375 5.9375 C6.7675 1.9775 7.0975 -1.9825 7.4375 -6.0625 C16.6775 -6.0625 25.9175 -6.0625 35.4375 -6.0625 C35.50543429 8.70711087 35.56060756 23.47662352 35.59293652 38.24635601 C35.60835184 45.10545668 35.62933812 51.9644528 35.66381836 58.82348633 C35.69711383 65.45004337 35.71438296 72.07652082 35.72213173 78.70316505 C35.7276498 81.2239534 35.73842489 83.74473622 35.75469017 86.26547813 C35.98465597 123.40142828 35.98465597 123.40142828 22.25 138.31640625 C8.26160922 150.82757473 -7.887194 152.71777225 -25.81738281 152.12109375 C-38.99740681 151.23961224 -52.60849526 145.83504503 -61.5625 135.9375 C-66.83502659 128.83572949 -70.5625 120.87957857 -70.5625 111.9375 C-61.3225 111.9375 -52.0825 111.9375 -42.5625 111.9375 C-41.2425 114.5775 -39.9225 117.2175 -38.5625 119.9375 C-32.23150179 125.96826531 -23.71970907 127.35744297 -15.27734375 127.1953125 C-9.55111168 126.65152643 -4.16127045 124.38657784 0.4375 120.9375 C6.31560911 113.54787712 6.73208506 106.55975564 6.5625 97.5 C6.55347656 96.57767578 6.54445313 95.65535156 6.53515625 94.70507812 C6.5117766 92.44894191 6.47900916 90.19336316 6.4375 87.9375 C5.91542969 88.45699219 5.39335938 88.97648437 4.85546875 89.51171875 C-5.65528801 99.47024661 -16.0903695 102.48339303 -30.3515625 102.2109375 C-43.42562485 101.61099189 -53.38210439 95.48103949 -62.3125 86.3125 C-72.03085548 75.02888727 -74.91850159 62.14742882 -74.875 47.6875 C-74.89111328 46.63175781 -74.90722656 45.57601562 -74.92382812 44.48828125 C-74.9335484 28.60535928 -69.92392249 15.71243077 -58.98046875 4.1640625 C-55.17836555 0.66293354 -51.22304007 -1.85257255 -46.5625 -4.0625 C-45.49708984 -4.57103516 -45.49708984 -4.57103516 -44.41015625 -5.08984375 C-30.65577321 -10.33536417 -11.86553821 -8.5731186 0 0 Z M-40.8984375 26.7578125 C-46.73856603 35.63615818 -47.62034765 44.5573699 -46.5625 54.9375 C-44.81201532 62.6257083 -40.84783955 68.71512553 -34.5625 73.44140625 C-28.2121034 77.42174412 -21.48906866 78.88878406 -14.07421875 77.45703125 C-4.80876531 74.63846474 0.65126507 69.36133679 5.48046875 61.16796875 C9.03815115 53.50141372 8.60203491 43.16135115 6.5 35.125 C3.53770378 27.81615698 -2.30816869 21.52273385 -9.5 18.3125 C-20.51306373 14.73793526 -33.71236466 16.96626296 -40.8984375 26.7578125 Z " fill="#FFFFFF" transform="translate(728.5625,113.0625)"/>
<path d="M0 0 C1.051875 0.721875 2.10375 1.44375 3.1875 2.1875 C17.89880749 16.89880749 18 32.78383546 18 53 C-7.41 53 -32.82 53 -59 53 C-56.22377863 62.25407125 -54.74975868 67.15959514 -46.9296875 72.3828125 C-40.40230793 75.72838697 -33.49185427 76.28240725 -26.44140625 74.26953125 C-21.74003803 72.37817622 -18.7903459 70.35293961 -16 66 C-15.01 64.515 -15.01 64.515 -14 63 C-11.01904297 62.65942383 -11.01904297 62.65942383 -7.2421875 62.70703125 C-6.57913605 62.71127609 -5.91608459 62.71552094 -5.23294067 62.71989441 C-3.11321559 62.73670029 -0.99443812 62.77435299 1.125 62.8125 C2.56118419 62.82754451 3.99738328 62.84123332 5.43359375 62.85351562 C8.95603764 62.8866091 12.47792636 62.9384032 16 63 C15.55365323 64.41580057 15.10047028 65.82944679 14.64453125 67.2421875 C14.39292236 68.02964355 14.14131348 68.81709961 13.88208008 69.62841797 C9.92944855 80.2555596 1.6520109 88.41928207 -8 94 C-22.29647228 100.4208037 -40.20288762 101.58860897 -55 96 C-68.13364841 90.33236749 -77.68818821 81.30120952 -83.21484375 68.09765625 C-89.10861113 52.4718317 -89.07394201 34.42404493 -82.74609375 18.9296875 C-76.59616853 5.55737053 -67.05462313 -3.23575795 -53.25 -8.4375 C-34.94883726 -13.49440023 -15.54484786 -10.77927406 0 0 Z M-52.53125 19.2578125 C-56.32355871 23.75613613 -57.85548454 28.27742271 -59 34 C-42.83 34 -26.66 34 -10 34 C-12.02115765 24.90479057 -13.54208626 20.90980984 -20.88671875 15.6484375 C-31.26014297 9.79892039 -43.84372553 11.02105581 -52.53125 19.2578125 Z " fill="#FFFFFF" transform="translate(255,116)"/>
<path d="M0 0 C1.051875 0.721875 2.10375 1.44375 3.1875 2.1875 C17.89880749 16.89880749 18 32.78383546 18 53 C-7.41 53 -32.82 53 -59 53 C-54.60704805 65.7156292 -54.60704805 65.7156292 -44.8125 73.4375 C-37.87944262 76.12915757 -30.95679645 76.08606754 -24.0625 73.3125 C-20.42391262 71.48021135 -18.22515508 69.47124193 -16 66 C-15.01 64.515 -15.01 64.515 -14 63 C-11.01904297 62.65942383 -11.01904297 62.65942383 -7.2421875 62.70703125 C-6.57913605 62.71127609 -5.91608459 62.71552094 -5.23294067 62.71989441 C-3.11321559 62.73670029 -0.99443812 62.77435299 1.125 62.8125 C2.56118419 62.82754451 3.99738328 62.84123332 5.43359375 62.85351562 C8.95603764 62.8866091 12.47792636 62.9384032 16 63 C11.70270218 76.60903632 5.05216494 86.91262017 -7.875 93.875 C-22.37685742 100.36267306 -39.97486605 101.6747287 -55 96 C-68.14379878 90.32798725 -77.63166329 81.30983647 -83.21484375 68.1328125 C-89.13061944 52.59600659 -88.98848132 34.51813891 -83 19 C-81.296612 15.40177694 -79.35385979 12.20670754 -77 9 C-76.48695313 8.29359375 -75.97390625 7.5871875 -75.4453125 6.859375 C-57.53449072 -15.59342551 -22.16139222 -15.36738877 0 0 Z M-52.53125 19.2578125 C-56.32355871 23.75613613 -57.85548454 28.27742271 -59 34 C-42.83 34 -26.66 34 -10 34 C-12.02115765 24.90479057 -13.54208626 20.90980984 -20.88671875 15.6484375 C-31.26014297 9.79892039 -43.84372553 11.02105581 -52.53125 19.2578125 Z " fill="#FFFFFF" transform="translate(372,116)"/>
<path d="M0 0 C10.57380988 7.62731612 15.7626509 16.36473529 18.3125 29.25 C18.47531811 31.75170931 18.5483782 34.26059163 18.53955078 36.76757812 C18.53984283 37.47100342 18.54013489 38.17442871 18.54043579 38.89916992 C18.53905732 41.19332805 18.52356727 43.48714956 18.5078125 45.78125 C18.50407708 47.38407209 18.50123261 48.98689648 18.49923706 50.58972168 C18.49164225 54.78514028 18.47202997 58.98041791 18.4498291 63.17578125 C18.42928069 67.46612644 18.4202162 71.75649466 18.41015625 76.046875 C18.38877968 84.44798821 18.35363194 92.84896026 18.3125 101.25 C9.4025 101.25 0.4925 101.25 -8.6875 101.25 C-8.73648438 97.03476563 -8.78546875 92.81953125 -8.8359375 88.4765625 C-8.8805528 85.09099185 -8.9270439 81.70545838 -8.97479248 78.31993103 C-9.02449516 74.75971191 -9.07098198 71.19952072 -9.109375 67.63916016 C-9.15369853 63.54311404 -9.21323719 59.44740629 -9.2734375 55.3515625 C-9.28498871 54.0907486 -9.29653992 52.82993469 -9.30844116 51.53091431 C-9.54073516 36.28832034 -9.54073516 36.28832034 -16.6875 23.25 C-21.91421065 19.23393057 -28.18879051 17.97595803 -34.6875 18.25 C-39.61288973 19.24073931 -44.29874587 20.78072295 -48.6875 23.25 C-49.84672128 24.98142854 -49.84672128 24.98142854 -50.6875 27.25 C-51.19291824 28.30945328 -51.69833649 29.36890656 -52.21907043 30.46046448 C-53.77138163 34.09305754 -54.08231976 37.22193089 -54.11987305 41.19506836 C-54.1300647 41.84957977 -54.14025635 42.50409119 -54.15075684 43.17843628 C-54.18065808 45.31566175 -54.1901169 47.45243744 -54.19921875 49.58984375 C-54.21608254 51.08201052 -54.23423506 52.57416324 -54.25361633 54.06629944 C-54.30093835 57.97392381 -54.33086226 61.88149115 -54.35705566 65.78930664 C-54.38695157 69.78478247 -54.43345065 73.78006219 -54.47851562 77.77539062 C-54.56434611 85.60017947 -54.63024424 93.42494033 -54.6875 101.25 C-63.9275 101.25 -73.1675 101.25 -82.6875 101.25 C-82.6875 66.27 -82.6875 31.29 -82.6875 -4.75 C-73.4475 -4.75 -64.2075 -4.75 -54.6875 -4.75 C-54.3575 -1.45 -54.0275 1.85 -53.6875 5.25 C-52.45 4.1775 -51.2125 3.105 -49.9375 2 C-35.99246228 -8.65876526 -14.84995693 -9.28743126 0 0 Z " fill="#FFFFFF" transform="translate(617.6875,111.75)"/>
<path d="M0 0 C1.46566406 -0.02416992 1.46566406 -0.02416992 2.9609375 -0.04882812 C14.62034805 -0.05658039 24.86277467 3.30019641 33.66796875 11.12890625 C40.46719517 18.30506207 42.41427752 25.62672017 43.625 35.3125 C34.715 35.3125 25.805 35.3125 16.625 35.3125 C15.305 32.6725 13.985 30.0325 12.625 27.3125 C7.69985231 22.68584611 2.26044577 22.9638087 -4.1875 23.04296875 C-8.66742152 23.42178564 -10.40210609 23.91490696 -13.375 27.3125 C-14.15528553 30.15413684 -14.35228293 32.51714325 -13.375 35.3125 C-9.10363706 39.98766826 -3.3270214 41.09501079 2.5625 42.75 C4.63603458 43.35988224 6.70895466 43.97185769 8.78125 44.5859375 C9.78414062 44.88081055 10.78703125 45.17568359 11.8203125 45.47949219 C23.88817504 49.06371459 34.12348156 52.72212103 41.625 63.3125 C44.75610664 70.96877491 44.97565172 80.30328681 42.8203125 88.296875 C38.93234119 96.93085267 31.76090931 102.86987184 23.15625 106.5234375 C16.17885083 108.69849094 9.55445688 109.67656087 2.25 109.625 C1.41927979 109.62008545 0.58855957 109.6151709 -0.26733398 109.61010742 C-6.67570528 109.48818017 -12.38846322 108.7187579 -18.375 106.3125 C-19.22191406 105.9721875 -20.06882812 105.631875 -20.94140625 105.28125 C-31.07371669 100.70237383 -37.41101907 94.39441657 -42.28125 84.4375 C-43.375 81.3125 -43.375 81.3125 -44.375 73.3125 C-35.135 73.3125 -25.895 73.3125 -16.375 73.3125 C-15.055 75.9525 -13.735 78.5925 -12.375 81.3125 C-6.01635131 86.37346528 -0.29192184 87.12034917 7.625 86.3125 C11.22086624 85.1100788 14.85124622 83.86000756 16.625 80.3125 C16.76875422 76.93427584 16.70036348 74.53859045 15.625 71.3125 C12.62079672 70.14612517 9.7156631 69.19708207 6.625 68.3125 C5.08610107 67.86438965 5.08610107 67.86438965 3.51611328 67.40722656 C-1.09757543 66.07238051 -5.71324945 64.74565556 -10.33789062 63.44921875 C-19.11017337 60.91182239 -28.30159255 58.18644062 -34.8125 51.4375 C-35.42996094 50.82132813 -36.04742188 50.20515625 -36.68359375 49.5703125 C-42.42848484 41.90161262 -42.3209734 33.42988172 -41.375 24.3125 C-39.06906187 16.40057006 -33.96880678 10.13483881 -26.984375 5.84375 C-18.04438721 1.12694663 -9.98114202 -0.03266081 0 0 Z " fill="#FFFFFF" transform="translate(827.375,105.6875)"/>
<path d="M0 0 C9.24 0 18.48 0 28 0 C28 8.58 28 17.16 28 26 C35.59 26 43.18 26 51 26 C51 33.59 51 41.18 51 49 C43.41 49 35.82 49 28 49 C28.0934059 56.77812969 28.19947151 64.55594335 28.31738281 72.33374023 C28.35571579 74.98082725 28.39056094 77.62796713 28.421875 80.27514648 C28.46743145 84.07555056 28.52544197 87.87558932 28.5859375 91.67578125 C28.59748871 92.86335526 28.60903992 94.05092926 28.62094116 95.27449036 C28.64081085 96.37540512 28.66068054 97.47631989 28.68115234 98.6105957 C28.69447601 99.58100296 28.70779968 100.55141022 28.7215271 101.55122375 C28.84005053 104.25530402 28.84005053 104.25530402 31 107 C33.59257669 107.86419223 35.34037707 108.17580932 38.01171875 108.31640625 C38.69451904 108.35451416 39.37731934 108.39262207 40.08081055 108.43188477 C40.94101807 108.47498779 41.80122559 108.51809082 42.6875 108.5625 C45.430625 108.706875 48.17375 108.85125 51 109 C51 116.59 51 124.18 51 132 C46.54100235 132.10860887 42.08468911 132.18762673 37.625 132.25 C36.37332031 132.28351563 35.12164062 132.31703125 33.83203125 132.3515625 C22.9336272 132.46568191 14.73691572 130.50384389 6.69140625 122.9296875 C1.30800649 116.78788732 -0.13067218 110.02390903 -0.11352539 102.01635742 C-0.11344986 100.83551071 -0.11337433 99.654664 -0.11329651 98.43803406 C-0.10813522 97.17328751 -0.10297394 95.90854095 -0.09765625 94.60546875 C-0.0962413 93.30297684 -0.09482635 92.00048492 -0.09336853 90.65852356 C-0.08956355 87.20783546 -0.07975064 83.75718992 -0.06866455 80.30651855 C-0.05840689 76.78052343 -0.0538616 73.25452139 -0.04882812 69.72851562 C-0.03812644 62.81899124 -0.02054612 55.90950205 0 49 C-4.29 49 -8.58 49 -13 49 C-13 41.41 -13 33.82 -13 26 C-8.71 26 -4.42 26 0 26 C0 17.42 0 8.84 0 0 Z " fill="#FFFFFF" transform="translate(413,81)"/>
<path d="M0 0 C9.24 0 18.48 0 28 0 C28 34.98 28 69.96 28 106 C18.76 106 9.52 106 0 106 C0 71.02 0 36.04 0 0 Z " fill="#FFFFFF" transform="translate(482,107)"/>
<path d="M0 0 C0.33 0 0.66 0 1 0 C1 19.47 1 38.94 1 59 C-11.87 59 -24.74 59 -38 59 C-32.37961477 48.88330658 -32.37961477 48.88330658 -29.1015625 44.0234375 C-28.38154053 42.9506958 -27.66151855 41.8779541 -26.91967773 40.77270508 C-26.15482062 39.64011277 -25.38992729 38.50754492 -24.625 37.375 C-23.022674 34.9922691 -21.42308649 32.60770879 -19.82421875 30.22265625 C-19.22133781 29.32407143 -19.22133781 29.32407143 -18.60627747 28.40733337 C-15.87776791 24.33296529 -13.18567878 20.23651172 -10.51953125 16.12109375 C-9.82972168 15.05648926 -9.13991211 13.99188477 -8.42919922 12.89501953 C-7.11940488 10.86787276 -5.81235725 8.83894815 -4.50830078 6.80810547 C-3.92677246 5.90850098 -3.34524414 5.00889648 -2.74609375 4.08203125 C-2.23747803 3.29030518 -1.7288623 2.4985791 -1.20483398 1.68286133 C-0.80723877 1.12751709 -0.40964355 0.57217285 0 0 Z " fill="#FFFFFF" transform="translate(990,104)"/>
<path d="M0 0 C3.71346314 1.89313807 6.28037234 4.56403077 8.1328125 8.29296875 C9.87869558 13.73723137 9.64871714 18.64006572 7.10546875 23.7265625 C2.29536611 29.18667901 -0.84655367 31.0715227 -7.95703125 31.6640625 C-12.70640131 31.58431561 -16.35798307 30.09966342 -20.20703125 27.3515625 C-24.03480239 23.03305147 -25.27292115 19.007112 -25.20703125 13.3515625 C-24.40447863 7.53305601 -22.29237551 5.02511918 -17.86328125 1.515625 C-12.88464947 -1.98350771 -5.70477859 -1.67609424 0 0 Z " fill="#FFFFFF" transform="translate(504.20703125,64.6484375)"/>
</svg>
